<svg xmlns="http://www.w3.org/2000/svg" version="1.1" xmlns:xlink="http://www.w3.org/1999/xlink" width="68" height="68"><svg width="68" height="68" viewBox="0 0 68 68" fill="none" xmlns="http://www.w3.org/2000/svg">
<path d="M68 34C68 52.7777 52.7777 68 34 68C15.2223 68 0 52.7777 0 34C0 15.2223 15.2223 0 34 0C52.7777 0 68 15.2223 68 34Z" fill="white"></path>
<path d="M8.29492 18.5234C8.83758 27.7246 17.3644 33.2767 33.6621 35.041C33.7754 35.0683 33.8911 35.0814 34.0068 35.0801C54.632 37.2677 57.1031 44.5186 57.125 49.8174V49.9434C57.1165 51.4628 56.75 52.9285 56.0771 54.3086C50.5945 60.2656 42.7342 64 34 64C17.4315 64 4 50.5685 4 34C4 28.3378 5.56853 23.042 8.29492 18.5234ZM59.875 18.8125C62.4955 23.2674 64 28.4577 64 34C64 39.5417 62.495 44.731 59.875 49.1855V18.8125ZM54.585 17.3262C55.2666 16.7248 56.0118 16.9759 56.2227 17.0703C56.4332 17.1646 57.125 17.533 57.125 18.4355V41.3828C56.171 40.1386 54.9694 39.0214 53.5244 38.0352C49.7912 35.4927 44.4172 33.7564 37.1523 32.749L54.585 17.3262ZM34 4C43.0711 4 51.2021 8.02598 56.7031 14.3887C55.3132 14.0202 53.8473 14.3557 52.7451 15.3281L33.9814 31.9287L15.4697 15.8486C14.3259 14.8555 12.7901 14.5434 11.3643 14.9893C11.4655 14.6209 11.5875 14.2569 11.7305 13.8984C17.2206 7.81999 25.1642 4 34 4ZM12.0137 17.6221C12.2242 17.5278 12.9656 17.2725 13.6475 17.8652L29.6621 31.7754C17.9467 29.8203 11.8441 25.5184 11.0938 18.9824H11.1172C11.1174 18.0894 11.803 17.7165 12.0137 17.6221Z" fill="#7E6CFF"></path>
</svg><style>@media (prefers-color-scheme: light) { :root { filter: none; } }
@media (prefers-color-scheme: dark) { :root { filter: none; } }
</style></svg>